<svg width="149" height="159" viewBox="0 0 149 159" fill="none" xmlns="http://www.w3.org/2000/svg">
<g filter="url(#filter0_d_10618_95031)">
<path d="M55.189 55.7416C60.2828 54.8799 64.5103 51.3246 66.2293 46.4519C68.3995 40.3023 71.2645 32.4247 72.5278 30.047C74.7791 25.8014 79.1511 24.4434 81.7002 28.1791C86.9113 35.8176 87.2588 37.9652 89.659 41.5656C93.0248 46.6098 107.774 31.2381 112.696 32.7676C117.623 34.2971 118.981 36.8372 118.133 41.2543C117.285 45.6758 103.952 70.6441 106.668 76.9245C109.403 83.2455 116.265 94.7596 117.113 99.3435C117.961 103.928 115.439 102.867 113.206 102.912C107.751 103.016 90.241 95.2107 83.9381 98.2607C73.8452 103.142 51.381 122.227 47.1354 123.59C42.8898 124.948 41.8702 123.251 42.7184 119.344C43.5666 115.437 52.2022 92.5578 52.8789 86.8549C53.5512 81.1881 32.2736 73.3601 30.4914 67.9234C29.377 64.5306 30.1531 60.9618 32.8692 59.9421C34.6152 59.2879 46.7339 57.1719 55.1935 55.7416H55.189Z" fill="white"/>
<path opacity="0.3" d="M108.121 43.4645C116.748 42.2599 109.344 37.2473 105.802 35.1719C103.501 36.5525 100.992 38.2715 98.6328 39.7062C100.081 42.0884 102.842 44.2 108.121 43.4645Z" fill="#4A5EE5"/>
<path opacity="0.3" d="M43.6384 68.2749C46.8643 65.6806 46.368 60.465 45.7183 57.3789C43.5617 57.7624 41.4682 58.1369 39.6094 58.4888C39.6725 63.2262 40.2636 70.9865 43.6384 68.2749Z" fill="#4A5EE5"/>
<path d="M30 64.8056C30 57.1536 34.787 55.0466 37.6294 55.1098C40.5486 55.1774 44.0587 58.1733 43.6482 63.6822C43.2421 69.1911 41.099 70.2152 41.099 70.2152L30 64.8056Z" fill="white"/>
<path d="M115.03 33.7057C109.585 30.6242 105.65 32.9387 103.782 35.8262C101.915 38.7138 104.161 42.7879 109.409 42.9594C114.656 43.1308 117.101 34.8788 115.035 33.7057H115.03Z" fill="white"/>
<path d="M69.6249 59.6676C71.5352 59.2723 73.4046 60.5008 73.8002 62.4112L74.448 65.5391C74.8433 67.4493 73.6155 69.3184 71.7054 69.7142C69.795 70.1099 67.9252 68.8822 67.5293 66.9719L66.8816 63.8439C66.4859 61.9334 67.7143 60.0633 69.6249 59.6676Z" fill="#726FFF" stroke="#726FFF" stroke-width="0.451179"/>
<path d="M88.126 57.5322C90.0768 57.5325 91.6582 59.1145 91.6582 61.0654V64.2598C91.658 66.2105 90.0767 67.7917 88.126 67.792C86.1751 67.792 84.593 66.2106 84.5928 64.2598V61.0654C84.5928 59.1144 86.1749 57.5322 88.126 57.5322Z" fill="#726FFF" stroke="#726FFF" stroke-width="0.451179"/>
<path d="M76.5078 73.7434C78.8675 74.5871 83.0544 74.7315 85.7028 71.5732L76.5078 73.7434Z" fill="#726FFF"/>
<path d="M76.5078 73.7434C78.8675 74.5871 83.0544 74.7315 85.7028 71.5732" stroke="#726FFF" stroke-width="2.04384" stroke-miterlimit="10" stroke-linecap="round"/>
<path d="M52.009 29.6003L53.5971 34.3738C53.7821 34.9378 54.2243 35.3799 54.7882 35.5649L59.5617 37.153C61.2762 37.7215 61.2762 40.1489 59.5617 40.7219L54.7882 42.31C54.2243 42.495 53.7821 42.9372 53.5971 43.5011L52.009 48.2746C51.4405 49.9891 49.0132 49.9891 48.4402 48.2746L46.852 43.5011C46.667 42.9372 46.2249 42.495 45.6609 42.31L40.8874 40.7219C39.1729 40.1534 39.1729 37.726 40.8874 37.153L45.6609 35.5649C46.2249 35.3799 46.667 34.9378 46.852 34.3738L48.4402 29.6003C49.0086 27.8858 51.436 27.8858 52.009 29.6003Z" fill="#FFDB76"/>
</g>
<defs>
<filter id="filter0_d_10618_95031" x="0" y="0" width="148.367" height="158.053" filterUnits="userSpaceOnUse" color-interpolation-filters="sRGB">
<feFlood flood-opacity="0" result="BackgroundImageFix"/>
<feColorMatrix in="SourceAlpha" type="matrix" values="0 0 0 0 0 0 0 0 0 0 0 0 0 0 0 0 0 0 127 0" result="hardAlpha"/>
<feOffset dy="4"/>
<feGaussianBlur stdDeviation="15"/>
<feComposite in2="hardAlpha" operator="out"/>
<feColorMatrix type="matrix" values="0 0 0 0 0.447059 0 0 0 0 0.435294 0 0 0 0 1 0 0 0 0.4 0"/>
<feBlend mode="normal" in2="BackgroundImageFix" result="effect1_dropShadow_10618_95031"/>
<feBlend mode="normal" in="SourceGraphic" in2="effect1_dropShadow_10618_95031" result="shape"/>
</filter>
</defs>
</svg>
