<?xml version="1.0" encoding="UTF-8"?>
<svg width="138px" height="95px" viewBox="0 0 138 95" version="1.1" xmlns="http://www.w3.org/2000/svg" xmlns:xlink="http://www.w3.org/1999/xlink">
    <title>编组 18</title>
    <defs>
        <linearGradient x1="50%" y1="0%" x2="50%" y2="100%" id="linearGradient-1">
            <stop stop-color="#589DFF" offset="0%"></stop>
            <stop stop-color="#147CFF" offset="100%"></stop>
        </linearGradient>
        <linearGradient x1="50%" y1="0%" x2="50%" y2="128.134228%" id="linearGradient-2">
            <stop stop-color="#FFFFFF" offset="0%"></stop>
            <stop stop-color="#FFFFFF" stop-opacity="0" offset="100%"></stop>
        </linearGradient>
    </defs>
    <g id="页面-1" stroke="none" stroke-width="1" fill="none" fill-rule="evenodd">
        <g id="我的工程-我创建的备份-3" transform="translate(-623.000000, -552.000000)">
            <g id="Feedback/Modal/Light/Basic备份-6" transform="translate(531.000000, 529.000000)">
                <g id="编组-18" transform="translate(92.000000, 23.000000)">
                    <g id="编组-2" fill="#D0E3FF" fill-opacity="0.44370083" fill-rule="nonzero" opacity="0.727050781">
                        <g id="编组-16">
                            <rect id="矩形" x="19.653375" y="-2.28485225e-14" width="102.866601" height="10.035766" rx="5.01788298"></rect>
                            <rect id="矩形备份" x="7.94498138" y="20.4896888" width="122.101819" height="9.61760904" rx="4.80880452"></rect>
                            <rect id="矩形备份-2" x="8.78129521" y="63.559851" width="121.683662" height="9.61760904" rx="4.80880452"></rect>
                            <rect id="矩形备份-3" x="0" y="41.3975346" width="137.573625" height="9.61760904" rx="4.80880452"></rect>
                            <rect id="矩形备份-5" x="19.653375" y="84.0495398" width="98.2668749" height="10.035766" rx="5.01788298"></rect>
                        </g>
                    </g>
                    <g id="编组-17" transform="translate(23.802754, 15.099544)">
                        <g id="编组" transform="translate(0.000000, 9.507120)">
                            <g id="矩形备份-4" transform="translate(8.703210, 13.981059)" fill="#77CEFF" fill-opacity="0.481588724">
                                <g id="path-5-link">
                                    <polygon id="path-5" points="-5.16676598e-14 0 75.9805562 0 75.9805562 49.4104027 -5.16676598e-14 49.4104027"></polygon>
                                </g>
                            </g>
                            <polygon id="矩形" fill="url(#linearGradient-1)" fill-rule="nonzero" points="-8.38599519e-14 0 74.6018071 0 74.6018071 55.0504216 -8.38599519e-14 55.0504216"></polygon>
                            <g id="安装分派" transform="translate(12.000000, 5.000000)" fill-rule="nonzero">
                                <rect id="矩形" fill="#000000" opacity="0" x="0" y="0" width="50" height="50"></rect>
                                <path d="M40.79375,34.3328125 L36.0734375,34.3328125 L36.0734375,29.6125 C36.0449194,29.121649 35.6385537,28.7382076 35.146875,28.7382076 C34.6551963,28.7382076 34.2488306,29.121649 34.2203125,29.6125 L34.2203125,34.3328125 L29.5,34.3328125 C29.009149,34.3613306 28.6257076,34.7676963 28.6257076,35.259375 C28.6257076,35.7510537 29.009149,36.1574194 29.5,36.1859375 L34.2203125,36.1859375 L34.2203125,40.90625 C34.2488306,41.397101 34.6551963,41.7805424 35.146875,41.7805424 C35.6385537,41.7805424 36.0449194,41.397101 36.0734375,40.90625 L36.0734375,36.1859375 L40.79375,36.1859375 C41.284601,36.1574194 41.6680424,35.7510537 41.6680424,35.259375 C41.6680424,34.7676963 41.284601,34.3613306 40.79375,34.3328125 M42.1234375,15.7203125 L42.1234375,16.578125 C42.1234375,16.7328125 42.1234375,17.0703125 42.0390625,17.3234375 C41.8672434,18.3183629 41.509435,19.2719886 40.984375,20.134375 C40.6307059,20.7227642 40.1950871,21.2578178 39.690625,21.7234375 C39.4515625,21.934375 39.2265625,22.1453125 38.9734375,22.3421875 C38.4013257,22.7407305 37.7765995,23.0578264 37.1171875,23.284375 C36.7073127,23.451476 36.283894,23.5832063 35.8515625,23.678125 C35.4364418,23.7748478 35.0121337,23.8267077 34.5859375,23.8328125 L33.3765625,23.8328125 C33.1219364,23.8270099 32.8767353,23.929177 32.7015625,24.1140625 L29.1875,27.65625 L16.3109375,40.603125 L15.93125,40.96875 C15.6096785,41.2596723 15.2501554,41.5056619 14.8625,41.7 C14.4233481,41.9303081 13.9475235,42.082572 13.45625,42.15 L11.803125,42.15 C11.310912,42.0627998 10.8360349,41.8965928 10.396875,41.6578125 C9.31465905,41.0353696 8.51013011,40.0241214 8.146875,38.8296875 C7.99727722,38.347745 7.93535886,37.8428722 7.9640625,37.3390625 C7.99613885,36.6005811 8.20857623,35.8811909 8.5828125,35.24375 C8.79375,34.859375 9.053125,34.5046875 9.35625,34.1890625 L25.83125,17.6578125 L25.915625,17.6578125 C26.1113581,17.4512658 26.1997338,17.1653444 26.1546875,16.884375 C26.1546875,16.546875 26.1546875,16.2234375 26.0703125,15.8859375 C26.0531267,15.6424904 26.0531267,15.3981346 26.0703125,15.1546875 C26.103146,14.8006319 26.1547813,14.4485724 26.225,14.1 C26.396875,13.3765625 26.671875,12.6796875 27.040625,12.0328125 C27.38125,11.4140625 27.8015625,10.8421875 28.2921875,10.33125 C28.5265625,10.0828125 28.78125,9.8515625 29.0515625,9.6421875 C29.375,9.3890625 29.7265625,9.178125 30.0640625,8.953125 C30.4765625,8.6921875 30.9203125,8.484375 31.3859375,8.334375 C31.7734375,8.203125 32.1671875,8.0953125 32.5671875,8.0109375 C32.9702808,7.91875663 33.3789625,7.85299176 33.790625,7.8140625 C34.2609375,7.7953125 34.7328125,7.8296875 35.196875,7.9125 C35.4533873,7.94057512 35.6945115,8.04883494 35.8859375,8.221875 C36.1838337,8.50982136 36.2733171,8.95164571 36.1109375,9.3328125 C35.9864539,9.6314624 35.7994469,9.89998526 35.5625,10.1203125 L34.2265625,11.5265625 L32.8203125,12.9328125 C32.6043573,13.1377233 32.4153407,13.3692686 32.2578125,13.621875 C32.0234375,13.99375 31.946875,14.44375 32.046875,14.8734375 C32.146875,15.2703125 32.35625,15.6296875 32.6515625,15.9140625 C33.2421875,16.51875 33.846875,17.0953125 34.45,17.7 C34.6453125,17.89375 34.8734375,18.0515625 35.125,18.1640625 C35.401338,18.2928005 35.7096064,18.3368388 36.0109375,18.290625 C36.425,18.1984375 36.7984375,17.9765625 37.0796875,17.6578125 L38.809375,15.9015625 L40.215625,14.4953125 C40.4603251,14.2451554 40.8141029,14.1342698 41.1578125,14.2 C41.5625,14.25 41.8921875,14.55625 41.96875,14.9609375 C41.9796875,15.1765625 41.9796875,15.3921875 41.96875,15.6078125 L41.96875,15.7203125 M12.5328125,35.259375 C11.5443307,35.2332933 10.6387704,35.8092423 10.243295,36.7155401 C9.84781955,37.6218379 10.0414357,38.6774275 10.7328125,39.384375 C11.4216528,40.0902637 12.4683472,40.3107587 13.3834138,39.9427465 C14.2984804,39.5747343 14.9010663,38.6909485 14.909388,37.7046875 C14.913726,36.3553166 13.8274493,35.2557757 12.478125,35.24375 M12.2515625,7.8203125 L12.659375,7.9046875 C12.8890625,7.9671875 13.1140625,8.0421875 13.334375,8.1296875 C13.828125,8.346875 14.2734375,8.6625 14.6421875,9.05625 L15.33125,9.7171875 L16.00625,10.3640625 L17.721875,12.1359375 L19.128125,13.5421875 L20.0421875,14.4703125 L20.9,15.35625 L21.8421875,16.25625 L22.9671875,17.3953125 L23.346875,17.803125 L22.053125,19.06875 L21.6171875,18.590625 L19.915625,16.8890625 L13.2359375,10.1953125 C13.0878117,10.0214742 12.8995744,9.88632952 12.6875,9.8015625 C12.4133692,9.75822434 12.1534781,9.93767295 12.096875,10.209375 C12.0691524,10.4454414 12.1647708,10.6791753 12.35,10.828125 L13.2921875,11.7703125 L20.615625,19.065625 L21.3609375,19.7828125 L19.8140625,21.3296875 L19.6734375,21.146875 L19.51875,20.95 L13.109375,14.5390625 L10.959375,12.3734375 C10.8496336,12.2433298 10.7217642,12.129668 10.5796875,12.0359375 C10.4248376,11.9549385 10.239612,11.9573496 10.086923,12.0423518 C9.93423389,12.1273539 9.83460484,12.2835217 9.821875,12.4578125 C9.81872829,12.6061529 9.8685902,12.7507524 9.9625,12.865625 C10.016271,12.9370711 10.0769838,13.0030178 10.14375,13.0625 L18.803125,21.778125 C18.915625,21.890625 19.0421875,21.9890625 19.16875,22.0875 L18.3390625,22.8890625 L17.8609375,23.2828125 C17.8609375,23.2828125 17.7203125,23.353125 17.7203125,23.2828125 L16.9890625,22.565625 L9.0890625,14.6796875 C8.48097963,14.0761381 8.0609012,13.3092508 7.8796875,12.471875 L7.8796875,11.2359375 C7.9390625,10.9078125 8.0328125,10.5875 8.1609375,10.2796875 C8.3546875,9.8921875 8.60625,9.5359375 8.90625,9.225 C9.1796875,8.884375 9.5078125,8.5890625 9.8765625,8.353125 C10.2546875,8.1046875 10.6734375,7.925 11.1140625,7.81875 L12.265625,7.81875" id="形状" fill="url(#linearGradient-2)"></path>
                            </g>
                        </g>
                        <polygon id="矩形" fill="#569CFF" fill-rule="nonzero" points="-1.52766688e-13 -4.33431069e-13 34.6730274 -4.33431069e-13 40.8246936 10.6256052 -1.52766688e-13 10.6256052"></polygon>
                    </g>
                </g>
            </g>
        </g>
    </g>
</svg>