<?xml version="1.0" encoding="UTF-8"?>
<svg width="138px" height="98px" viewBox="0 0 138 98" version="1.1" xmlns="http://www.w3.org/2000/svg" xmlns:xlink="http://www.w3.org/1999/xlink">
    <title>编组 18</title>
    <defs>
        <linearGradient x1="50%" y1="0%" x2="50%" y2="100%" id="linearGradient-1">
            <stop stop-color="#BDE7FF" offset="0%"></stop>
            <stop stop-color="#147CFF" offset="100%"></stop>
        </linearGradient>
        <linearGradient x1="50%" y1="0%" x2="50%" y2="100%" id="linearGradient-2">
            <stop stop-color="#589DFF" offset="0%"></stop>
            <stop stop-color="#147CFF" offset="100%"></stop>
        </linearGradient>
        <linearGradient x1="50%" y1="0%" x2="50%" y2="100%" id="linearGradient-3">
            <stop stop-color="#589DFF" offset="0%"></stop>
            <stop stop-color="#147CFF" offset="100%"></stop>
        </linearGradient>
    </defs>
    <g id="页面-1" stroke="none" stroke-width="1" fill="none" fill-rule="evenodd">
        <g id="我的工程-我创建的备份-3" transform="translate(-249.000000, -818.000000)" fill-rule="nonzero">
            <g id="Feedback/Modal/Light/Basic备份-10" transform="translate(130.000000, 798.000000)">
                <g id="编组-18" transform="translate(119.000000, 20.000000)">
                    <g id="编组-2" transform="translate(0.000000, 3.000000)" fill="#D0E3FF" fill-opacity="0.44370083" opacity="0.727050781">
                        <g id="编组-16">
                            <rect id="矩形" x="19.653375" y="-2.28485225e-14" width="102.866601" height="10.035766" rx="5.01788298"></rect>
                            <rect id="矩形备份" x="7.94498138" y="20.4896888" width="122.101819" height="9.61760904" rx="4.80880452"></rect>
                            <rect id="矩形备份-2" x="8.78129521" y="63.559851" width="121.683662" height="9.61760904" rx="4.80880452"></rect>
                            <rect id="矩形备份-3" x="0" y="41.3975346" width="137.573625" height="9.61760904" rx="4.80880452"></rect>
                            <rect id="矩形备份-5" x="19.653375" y="84.0495398" width="98.2668749" height="10.035766" rx="5.01788298"></rect>
                        </g>
                    </g>
                    <g id="编组-17" transform="translate(10.802754, 0.099544)">
                        <g id="编组" transform="translate(0.000000, 0.656273)">
                            <g id="注册失败" transform="translate(0.255260, 0.509022)">
                                <rect id="矩形" fill="#000000" opacity="0" x="0" y="0" width="90.3052111" height="90.3052111"></rect>
                                <path d="M92.6831753,20.6930446 C91.4301362,19.440971 89.7278516,18.7428721 87.9565085,18.7545139 L55.200485,18.7545139 C53.4300998,18.7444301 51.72924,19.4430779 50.4772157,20.6947981 C49.2255122,21.9467888 48.5268647,23.6476083 48.5369679,25.4179579 L48.5369679,77.0662919 C48.5268892,78.8366368 49.2255329,80.5374472 50.4772157,81.7894517 C51.72924,83.0411718 53.4300999,83.7398196 55.200485,83.7297348 L87.9565085,83.7297348 C89.7278651,83.7413364 91.4301473,83.043199 92.6831753,81.7910955 C93.9362864,80.5391961 94.6358105,78.837572 94.625618,77.0662919 L94.625618,25.4179579 C94.6358645,23.6466351 93.9363343,21.9449569 92.6831753,20.6930446 Z" id="路径" fill="#BDE7FF"></path>
                                <path d="M53.4687949,77.0661823 L53.4687949,25.4179579 C53.4585814,23.6476083 54.1572288,21.9467888 55.4089323,20.6947981 C56.6609972,19.4430716 58.3618929,18.7444253 60.1323112,18.7545499 L55.2005946,18.7545499 C53.4302094,18.7444301 51.7293495,19.4430779 50.4773252,20.6947981 C49.2256217,21.9467888 48.5269743,23.6476083 48.5370775,25.4179579 L48.5370775,77.0662919 C48.5269988,78.8366367 49.2256425,80.5374472 50.4773252,81.7894517 C51.7293495,83.0411719 53.4302094,83.7398197 55.2005946,83.7296998 L60.1323112,83.7296998 C58.3618977,83.7398 56.661011,83.0411574 55.4089323,81.7894517 C54.1572432,80.5374066 53.458601,78.8365603 53.4687949,77.0661823 L53.4687949,77.0661823 Z" id="路径" fill="url(#linearGradient-1)"></path>
                                <path d="M26.4558102,33.9103739 C26.394109,33.2201528 25.7845489,32.7107613 25.0944373,32.7724625 C24.766453,32.808174 24.4645994,32.9681404 24.2508946,33.2194952 C24.0363523,33.4715723 23.9349001,33.8007768 23.9703347,34.1298901 C24.0075331,34.4588546 24.1699263,34.7608791 24.4238335,34.9733232 C24.6412255,35.1700234 24.9252557,35.2767404 25.2183877,35.2718565 L25.3176797,35.2718565 C26.0080103,35.2101553 26.5174019,34.6005951 26.4558102,33.9103739 Z M25.6912846,34.9169921 C25.3256617,35.1077782 24.8810438,35.0590447 24.5654285,34.7935896 C24.3518949,34.6269894 24.221406,34.3757324 24.2079338,34.1052315 C24.1812549,33.8350325 24.2635942,33.5653687 24.4366559,33.3561586 C24.6037944,33.142259 24.8557441,33.0116836 25.126877,32.9984448 L25.218059,32.9984448 C25.7461917,32.9937302 26.1888222,33.3966209 26.2336638,33.9228676 C26.2710867,34.3335469 26.0568682,34.7261871 25.6912846,34.9169921 L25.6912846,34.9169921 Z M105.788938,16.7381367 C105.703346,15.7832467 104.859912,15.0782304 103.905132,15.1637135 C103.451372,15.2130348 103.033758,15.4343525 102.738178,15.7821508 C102.441159,16.1308535 102.300697,16.5864033 102.349778,17.0418208 C102.401337,17.4970144 102.626081,17.9149123 102.977421,18.2088841 C103.278196,18.4810341 103.671189,18.628656 104.076756,18.6218332 L104.214296,18.6218332 C105.169076,18.5366789 105.874093,17.6932458 105.788938,16.7381367 L105.788938,16.7381367 Z M104.73103,18.130963 C104.225146,18.3949497 103.609954,18.3275184 103.173265,17.960216 C102.877708,17.729702 102.697089,17.3819849 102.67845,17.0076275 C102.64151,16.6337149 102.755498,16.2605419 102.995066,15.9710903 C103.226301,15.6751132 103.574915,15.4944451 103.950065,15.4761652 L104.076317,15.4761652 C104.806869,15.4695896 105.419498,16.0269831 105.481418,16.7552333 C105.533363,17.3235383 105.236961,17.8669493 104.73103,18.130963 L104.73103,18.130963 Z M14.8927978,15.1566995 C14.7439767,15.1565183 14.6233786,15.0359201 14.6231974,14.887099 L14.6231974,13.1436824 L13.3919121,14.3749676 C13.2832641,14.4782694 13.1120714,14.4761227 13.0060479,14.370129 C12.9000244,14.2641352 12.8978296,14.0929431 13.0011009,13.9842661 L14.2326055,12.7529808 L12.4861201,12.7529808 C12.3365278,12.7529808 12.2152593,12.6317123 12.2152593,12.48212 C12.2152593,12.3325277 12.3365278,12.2112591 12.4861201,12.2112591 L14.2326055,12.2112591 L13.0011009,10.9946595 C12.9439818,10.9458328 12.9110937,10.8744529 12.9110937,10.7993087 C12.9110937,10.7241645 12.9439818,10.6527846 13.0011009,10.6039579 C13.0500415,10.546941 13.1214756,10.514187 13.1966161,10.5143103 C13.2716878,10.5143103 13.3427046,10.5468595 13.3919121,10.6039579 L14.6231974,11.823407 L14.6231974,10.0797712 C14.6002985,9.97233689 14.6449265,9.86175983 14.7359827,9.80031683 C14.827039,9.73887383 14.9462822,9.73887383 15.0373385,9.80031683 C15.1283947,9.86175983 15.1730227,9.97233689 15.1501239,10.0797712 L15.1501239,11.823407 L16.3933548,10.5919026 C16.4423225,10.5349823 16.5136754,10.5022428 16.5887604,10.5022428 C16.6638454,10.5022428 16.7351983,10.5349823 16.784166,10.5919026 C16.8411538,10.6408304 16.8739429,10.712198 16.8739429,10.7873082 C16.8739429,10.8624184 16.8411538,10.933786 16.784166,10.9827138 L15.5526615,12.2143278 L17.2960782,12.2143278 C17.4456099,12.2143278 17.5668294,12.3355473 17.5668294,12.485079 C17.5668294,12.6346108 17.4456099,12.7558302 17.2960782,12.7558302 L15.5526615,12.7558302 L16.784166,13.9874443 C16.8539772,14.0569266 16.8810468,14.1587392 16.8556211,14.2540857 C16.8300114,14.349401 16.7556116,14.4238843 16.6603252,14.4496009 C16.5649013,14.4750461 16.4631501,14.4476868 16.3933548,14.377817 L15.1501239,13.1436824 L15.1501239,14.887099 C15.1797142,15.0381191 15.0290228,15.1565899 14.8808522,15.1565899 L14.8927978,15.1565899 L14.8927978,15.1566995 Z M10.5950809,80.2865932 L9.84995325,80.2865932 L9.84995325,79.541356 C9.84995325,79.4174055 9.74967504,79.3171273 9.62572453,79.3171273 C9.50177401,79.3171273 9.4014958,79.4174055 9.4014958,79.541356 L9.4014958,80.2865932 L8.65636819,80.2865932 C8.53253009,80.2865932 8.43213947,80.3869838 8.43213947,80.5108219 C8.43213947,80.63466 8.53253009,80.7350506 8.65636819,80.7350506 L9.4014958,80.7350506 L9.4014958,81.4802878 C9.40149578,81.5394462 9.42501134,81.5961784 9.46686317,81.6379891 C9.508715,81.6797998 9.56547028,81.7032596 9.6246286,81.7032015 L9.62693006,81.6935572 C9.75008061,81.6932557 9.84982192,81.5934654 9.85006287,81.4703148 L9.85006287,80.7351602 L10.5951904,80.7351602 C10.7171264,80.7324347 10.8145453,80.6327896 10.8145156,80.5108231 C10.8144858,80.3888566 10.7170182,80.2892591 10.5950809,80.2865932 L10.5950809,80.2865932 Z M105.796062,72.2276203 C105.796062,73.7048338 104.7958,74.8666367 103.558816,74.8666367 C104.799417,74.8666367 105.796062,76.0482759 105.796062,77.505653 C105.796062,76.0284395 106.796433,74.8666367 108.033089,74.8666367 C106.792378,74.8666367 105.796062,73.6851069 105.796062,72.2276203 Z" id="形状" fill="#6EB5FF"></path>
                                <path d="M87.9987021,84.3509853 L87.9524535,84.3509853 L55.200485,84.3509853 C53.2810609,84.3596431 51.3982411,83.5885418 50.037964,82.2288128 C48.6780158,80.8684262 47.9046131,78.9854968 47.9155625,77.0625656 L47.9155625,25.4179579 C47.9045034,23.4987531 48.6780158,21.6158236 50.0377449,20.2555465 C51.3883777,18.9054617 53.25432,18.1332644 55.1627848,18.1332644 L55.203992,18.1332644 L87.9563989,18.1332644 L88.0026474,18.1332644 C89.9072764,18.1332644 91.7722324,18.9044754 93.1223173,20.2536834 C94.4834711,21.6135221 95.2578602,23.4972187 95.2471321,25.4216841 L95.2471321,34.9880089 C95.2471321,35.331136 94.9685221,35.6092956 94.6253949,35.6092956 C94.2822677,35.6092956 94.0041082,35.331136 94.0041082,34.9880089 L94.0041082,25.4181771 C94.013314,23.8200818 93.3717526,22.2594674 92.2439237,21.1328441 C91.1163141,20.0060017 89.5537271,19.363125 87.9604539,19.3762763 L55.200485,19.3762763 C53.6042527,19.3643306 52.0435288,20.0078647 50.9164672,21.134488 C49.7899535,22.2614401 49.1491591,23.8215064 49.158365,25.4146701 L49.158365,77.066511 C49.1491592,78.6631817 49.7899535,80.2233576 50.9165768,81.3504192 C52.0354189,82.468823 53.5815668,83.108631 55.1628944,83.108631 L55.196978,83.1085215 L87.9566181,83.1085215 L87.9950855,83.108631 C89.580468,83.108631 91.1256296,82.4695902 92.244143,81.3519536 C93.3720813,80.2252208 94.0136429,78.6646065 94.004437,77.0702373 L94.004437,49.4815569 C94.004437,49.1384297 94.2825965,48.8602702 94.6257237,48.8602702 C94.9688508,48.8602702 95.2471321,49.1384297 95.2471321,49.4815569 L95.2471321,77.0661823 C95.2582985,78.9869214 94.4837999,80.8707277 93.1225365,82.2305663 C91.7725612,83.5795551 89.9072764,84.3509853 87.9987021,84.3509853 Z" id="路径" fill="#7ECAFC"></path>
                                <path d="M94.6255045,41.828519 C94.2824024,41.8284585 94.0042783,41.5503344 94.0042178,41.2072323 L94.0042178,38.166007 C94.0042178,37.8228798 94.2823773,37.5447203 94.6255045,37.5447203 C94.9686317,37.5447203 95.2467912,37.8228798 95.2467912,38.166007 L95.2467912,41.2072323 C95.2467912,41.3720078 95.1813344,41.5300345 95.0648206,41.6465483 C94.9483067,41.7630622 94.79028,41.828519 94.6255045,41.828519 L94.6255045,41.828519 Z" id="路径" fill="#7ECAFC"></path>
                                <path d="M80.627868,28.3646038 C79.3748289,27.1125301 77.6725443,26.4144313 75.9012012,26.426073 L43.1451777,26.426073 C41.3747925,26.4159893 39.6739326,27.1146371 38.4219083,28.3663573 C37.1702049,29.6183479 36.4715574,31.3191675 36.4816606,33.0895171 L36.4816606,82.545977 C36.4715819,84.3163219 37.1702256,86.0171324 38.4219083,87.2691368 C39.6739326,88.520857 41.3747925,89.2195048 43.1451777,89.2094201 L75.9012012,89.2094201 C77.6725578,89.2210216 79.37484,88.5228842 80.627868,87.2707807 C81.8809791,86.0188813 82.5805033,84.3172571 82.5703107,82.545977 L82.5703107,33.0895171 C82.5805572,31.3181943 81.881027,29.6165161 80.627868,28.3646038 L80.627868,28.3646038 Z" id="路径" fill="url(#linearGradient-2)"></path>
                                <path d="M80.627868,28.3646038 C79.3748289,27.1125301 77.6725443,26.4144313 75.9012012,26.426073 L70.4215161,26.426073 C72.1928592,26.4144313 73.8951437,27.1125302 75.1481828,28.3646038 C76.4013002,29.6165438 77.1008229,31.3182038 77.090512,33.0895171 L77.090512,82.545977 C77.1008671,84.3172667 76.4013355,86.018909 75.1481828,87.2707807 C73.8951548,88.5228841 72.1928726,89.2210215 70.4215161,89.2094201 L75.9012012,89.2094201 C77.6725578,89.2210216 79.37484,88.5228842 80.627868,87.2707807 C81.8809791,86.0188813 82.5805033,84.3172571 82.5703107,82.545977 L82.5703107,33.0895171 C82.5805572,31.3181943 81.881027,29.6165161 80.627868,28.3646038 L80.627868,28.3646038 Z" id="路径" fill="url(#linearGradient-3)"></path>
                                <path d="M75.9433947,89.8306704 L75.8971462,89.8306704 L43.1451777,89.8306704 C41.2246577,89.8439312 39.3429338,89.068227 37.9826567,87.7084979 C36.6227085,86.3481113 35.8493058,84.4651819 35.8602575,82.5422508 L35.8602575,80.7340643 C35.8667351,80.3954857 36.1430231,80.1243394 36.4816614,80.1243394 C36.8202997,80.1243394 37.0965876,80.3954857 37.1029481,80.7340643 L37.1029481,82.5458674 C37.0937423,84.142538 37.7345366,85.702714 38.8611599,86.8297757 C39.9881119,87.9562894 41.5429177,88.5965358 43.1414516,88.5878778 L75.9010916,88.5878778 L75.939559,88.5879874 C77.5249415,88.5879874 79.070103,87.9490561 80.1886164,86.83131 C81.3165548,85.7045772 81.9581163,84.1439628 81.9489105,82.5495936 L81.9489105,33.0895171 C81.9581163,31.4914218 81.3165549,29.9308074 80.188726,28.8041841 C79.0612261,27.6773417 77.5007213,27.0400543 75.9052561,27.0475067 L43.1451777,27.0475067 C41.5459864,27.0381912 39.9882215,27.6789856 38.8611599,28.8057184 C37.7346462,29.9326705 37.0938518,31.4927368 37.1030577,33.0859005 L37.1030577,50.1209265 C37.0966972,50.4595051 36.8204093,50.7306514 36.481771,50.7306514 C36.1431327,50.7306514 35.8668448,50.4595051 35.8602575,50.1209265 L35.8602575,33.0895171 C35.8493058,31.1703122 36.6228181,29.2873828 37.9825471,27.9271057 C39.3429338,26.5671575 41.2293702,25.7929875 43.1489039,25.804797 L75.9013108,25.804797 L75.9475593,25.804797 C77.8521883,25.804797 79.7171444,26.5760346 81.0672292,27.9251331 C82.4283829,29.2849717 83.2027721,31.1686683 83.1917152,33.0931337 L83.1917152,82.545977 C83.2028816,84.4667162 82.4283829,86.3505224 81.0671195,87.710361 C79.7172539,89.0592403 77.8518595,89.8306704 75.9433947,89.8306704 Z" id="路径" fill="#3C92FF"></path>
                                <path d="M14.891154,66.2453384 C14.891154,74.1236447 21.2777832,80.5102739 29.1560896,80.5102739 C37.0343959,80.5102739 43.4210251,74.1236447 43.4210251,66.2453384 C43.4210251,61.1489677 40.7021439,56.4397269 36.2885574,53.8915415 C31.874971,51.3433562 26.4372082,51.3433562 22.0236217,53.8915415 C17.6100352,56.4397269 14.891154,61.1489677 14.891154,66.2453384 L14.891154,66.2453384 Z" id="路径" stroke="#FFFFFF" fill="#FF6161"></path>
                                <path d="M73.2177994,68.8569563 L49.7940085,68.8569563 C49.4508813,68.8569563 49.1727218,68.5787968 49.1727218,68.2356696 C49.1727218,67.8925425 49.4508813,67.6143829 49.7940085,67.6143829 L73.2177994,67.6143829 C73.5609266,67.6143829 73.8390861,67.8925425 73.8390861,68.2356696 C73.8390861,68.5787968 73.5609266,68.8569563 73.2177994,68.8569563 L73.2177994,68.8569563 Z M73.2177994,60.6755672 L49.7940085,60.6755672 C49.5719884,60.6756508 49.3667976,60.5572526 49.2557634,60.3649915 C49.1447292,60.1727303 49.1447292,59.9358307 49.2557634,59.7435696 C49.3667976,59.5513085 49.5719884,59.4329102 49.7940085,59.4329938 L73.2177994,59.4329938 C73.4398195,59.4329102 73.6450103,59.5513085 73.7560445,59.7435696 C73.8670787,59.9358307 73.8670787,60.1727303 73.7560445,60.3649915 C73.6450103,60.5572526 73.4398195,60.6756508 73.2177994,60.6755672 Z M73.2177994,52.4941781 L42.6958436,52.4941781 C42.4738792,52.4941781 42.2687756,52.3757616 42.1577934,52.1835348 C42.0468112,51.991308 42.0468112,51.7544748 42.1577934,51.562248 C42.2687756,51.3700213 42.4738792,51.2516047 42.6958436,51.2516047 L73.2177994,51.2516047 C73.4397638,51.2516047 73.6448673,51.3700213 73.7558495,51.562248 C73.8668317,51.7544748 73.8668317,51.991308 73.7558495,52.1835348 C73.6448673,52.3757616 73.4397638,52.4941781 73.2177994,52.4941781 Z M73.2177994,44.3127891 L42.6958436,44.3127891 C42.357265,44.3064286 42.0861186,44.0301407 42.0861186,43.6915024 C42.0861186,43.352864 42.357265,43.0765761 42.6958436,43.0702156 L73.2177994,43.0702156 C73.556378,43.0765761 73.8275244,43.352864 73.8275244,43.6915024 C73.8275244,44.0301407 73.556378,44.3064286 73.2177994,44.3127891 L73.2177994,44.3127891 Z" id="形状" fill="#7ECAFC"></path>
                                <path d="M37.4523329,74.5413625 C37.0187802,74.9750248 36.3159557,74.9750248 35.8824031,74.5413625 L20.8598462,59.5190249 C20.4262936,59.0855819 20.4262936,58.3825382 20.8598462,57.9489855 C21.2933989,57.5157616 21.9961138,57.5154328 22.4296664,57.9489855 L37.4522233,72.9716519 C37.8857759,73.4052046 37.8857759,74.1079194 37.4523329,74.5413625 L37.4523329,74.5413625 Z" id="路径" fill="#FFFFFF"></path>
                                <path d="M20.8598462,74.5413625 C20.4262936,74.1079194 20.4261839,73.4052046 20.8598462,72.9716519 L35.8824031,57.9489855 C36.3159557,57.5154328 37.0187802,57.5157616 37.4522233,57.9489855 C37.8857759,58.3825382 37.8858855,59.085253 37.4522233,59.5190249 L22.4296664,74.5413625 C21.9961138,74.9750248 21.2932893,74.9750248 20.8598462,74.5413625 Z" id="路径" fill="#FFFFFF"></path>
                            </g>
                        </g>
                    </g>
                </g>
            </g>
        </g>
    </g>
</svg>