<?xml version="1.0" encoding="UTF-8"?>
<svg width="138px" height="95px" viewBox="0 0 138 95" version="1.1" xmlns="http://www.w3.org/2000/svg" xmlns:xlink="http://www.w3.org/1999/xlink">
    <title>编组 18</title>
    <defs>
        <linearGradient x1="50%" y1="0%" x2="50%" y2="100%" id="linearGradient-1">
            <stop stop-color="#589DFF" offset="0%"></stop>
            <stop stop-color="#147CFF" offset="100%"></stop>
        </linearGradient>
        <linearGradient x1="50%" y1="0%" x2="50%" y2="128.134228%" id="linearGradient-2">
            <stop stop-color="#FFFFFF" offset="0%"></stop>
            <stop stop-color="#FFFFFF" stop-opacity="0" offset="100%"></stop>
        </linearGradient>
    </defs>
    <g id="页面-1" stroke="none" stroke-width="1" fill="none" fill-rule="evenodd">
        <g id="我的工程-我创建的备份-3" transform="translate(-623.000000, -821.000000)">
            <g id="Feedback/Modal/Light/Basic备份-7" transform="translate(531.000000, 798.000000)">
                <g id="编组-18" transform="translate(92.000000, 23.000000)">
                    <g id="编组-2" fill="#D0E3FF" fill-opacity="0.44370083" fill-rule="nonzero" opacity="0.727050781">
                        <g id="编组-16">
                            <rect id="矩形" x="19.653375" y="-2.28485225e-14" width="102.866601" height="10.035766" rx="5.01788298"></rect>
                            <rect id="矩形备份" x="7.94498138" y="20.4896888" width="122.101819" height="9.61760904" rx="4.80880452"></rect>
                            <rect id="矩形备份-2" x="8.78129521" y="63.559851" width="121.683662" height="9.61760904" rx="4.80880452"></rect>
                            <rect id="矩形备份-3" x="0" y="41.3975346" width="137.573625" height="9.61760904" rx="4.80880452"></rect>
                            <rect id="矩形备份-5" x="19.653375" y="84.0495398" width="98.2668749" height="10.035766" rx="5.01788298"></rect>
                        </g>
                    </g>
                    <g id="编组-17" transform="translate(23.802754, 15.099544)">
                        <g id="编组" transform="translate(0.000000, 9.507120)">
                            <g id="矩形备份-4" transform="translate(8.703210, 13.981059)" fill="#77CEFF" fill-opacity="0.481588724">
                                <g id="path-5-link">
                                    <polygon id="path-5" points="-5.16676598e-14 0 75.9805562 0 75.9805562 49.4104027 -5.16676598e-14 49.4104027"></polygon>
                                </g>
                            </g>
                            <polygon id="矩形" fill="url(#linearGradient-1)" fill-rule="nonzero" points="-8.38599519e-14 0 74.6018071 0 74.6018071 55.0504216 -8.38599519e-14 55.0504216"></polygon>
                            <g id="删除行" transform="translate(13.197246, 15.393335)" fill="url(#linearGradient-2)" fill-rule="nonzero">
                                <path d="M46.3058872,18.0792202 L43.0026666,21.3793334 L43.0026666,21.3793334 L46.3056945,24.6808053 C47.2167803,25.591462 47.2171282,27.068276 46.3064716,27.9793619 C46.3061478,27.9796858 46.305824,27.9800096 46.3055,27.9803333 C45.3936126,28.8915762 43.9158077,28.8914892 43.0040276,27.9801389 L39.7033334,24.681 L39.7033334,24.681 L36.4075103,27.976823 C35.4989905,28.8853428 34.0259889,28.8853428 33.1174691,27.976823 C33.1155315,27.9748854 33.1135974,27.9729444 33.1116666,27.971 C32.2019688,27.0548504 32.2038827,25.5757217 33.1159485,24.6619294 L36.397,21.3746666 L36.397,21.3746666 L33.1071937,18.0833064 C32.1958437,17.1715258 32.195757,15.6937208 33.107,14.7818333 C34.0175487,13.8706407 35.4943619,13.8701186 36.4055545,14.7806673 C36.4058788,14.7809914 36.406203,14.7813155 36.406527,14.7816397 L39.6963334,18.073 L39.6963334,18.073 L42.9948933,14.7682252 C43.9081236,13.8532742 45.3901573,13.8518794 46.3051082,14.7651097 C46.3056279,14.7656284 46.3061474,14.7661474 46.3066667,14.7666667 C47.2211879,15.6811879 47.2211879,17.1639199 46.3066667,18.0784412 C46.3064069,18.0787009 46.3061471,18.0789606 46.3058872,18.0792202 Z M14.0366666,26.0366667 C14.0366666,27.3253311 12.9919977,28.37 11.7033333,28.37 L2.36999997,28.37 C1.08133556,28.37 0.0366666484,27.3253311 0.0366666484,26.0366667 C0.0366666484,24.7480023 1.08133556,23.7033334 2.36999997,23.7033334 L11.7033333,23.7033334 C12.9919977,23.7033334 14.0366666,24.7480023 14.0366666,26.0366667 Z M25.7033333,16.7033334 L2.37,16.7033334 C1.08133557,16.7033334 0.0366666484,15.6586644 0.0366666484,14.37 C0.0366666484,13.0813356 1.08133557,12.0366666 2.37,12.0366666 L25.7033333,12.0366666 C26.9919977,12.0366666 28.0366666,13.0813356 28.0366666,14.37 C28.0366666,15.6586644 26.9919977,16.7033334 25.7033333,16.7033334 Z M39.7033333,5.03666665 L2.36999997,5.03666665 C1.08133556,5.03666665 0.0366666484,3.99199774 0.0366666484,2.70333332 C0.0366666484,1.41466891 1.08133556,0.37 2.36999997,0.37 L39.7033333,0.37 C40.9919977,0.37 42.0366666,1.41466891 42.0366666,2.70333332 C42.0366666,3.99199774 40.9919977,5.03666665 39.7033333,5.03666665 Z" id="形状"></path>
                            </g>
                        </g>
                        <polygon id="矩形" fill="#569CFF" fill-rule="nonzero" points="0 -4.54747351e-13 34.6730274 -4.54747351e-13 40.8246936 10.6256052 0 10.6256052"></polygon>
                    </g>
                </g>
            </g>
        </g>
    </g>
</svg>