<?xml version="1.0" encoding="UTF-8"?>
<svg width="138px" height="95px" viewBox="0 0 138 95" version="1.1" xmlns="http://www.w3.org/2000/svg" xmlns:xlink="http://www.w3.org/1999/xlink">
    <title>编组 18</title>
    <defs>
        <linearGradient x1="50%" y1="0%" x2="50%" y2="100%" id="linearGradient-1">
            <stop stop-color="#589DFF" offset="0%"></stop>
            <stop stop-color="#147CFF" offset="100%"></stop>
        </linearGradient>
        <linearGradient x1="-24.5918414%" y1="50%" x2="83.457137%" y2="50%" id="linearGradient-2">
            <stop stop-color="#FFFFFF" stop-opacity="0" offset="0%"></stop>
            <stop stop-color="#FFFFFF" offset="100%"></stop>
        </linearGradient>
    </defs>
    <g id="页面-1" stroke="none" stroke-width="1" fill="none" fill-rule="evenodd">
        <g id="我的工程-我创建的备份-3" transform="translate(-623.000000, -277.000000)">
            <g id="Feedback/Modal/Light/Basic备份-4" transform="translate(531.000000, 254.000000)">
                <g id="编组-18" transform="translate(92.000000, 23.000000)">
                    <g id="编组-2" fill="#D0E3FF" fill-opacity="0.44370083" fill-rule="nonzero" opacity="0.727050781">
                        <g id="编组-16">
                            <rect id="矩形" x="19.653375" y="-2.28485225e-14" width="102.866601" height="10.035766" rx="5.01788298"></rect>
                            <rect id="矩形备份" x="7.94498138" y="20.4896888" width="122.101819" height="9.61760904" rx="4.80880452"></rect>
                            <rect id="矩形备份-2" x="8.78129521" y="63.559851" width="121.683662" height="9.61760904" rx="4.80880452"></rect>
                            <rect id="矩形备份-3" x="0" y="41.3975346" width="137.573625" height="9.61760904" rx="4.80880452"></rect>
                            <rect id="矩形备份-5" x="19.653375" y="84.0495398" width="98.2668749" height="10.035766" rx="5.01788298"></rect>
                        </g>
                    </g>
                    <g id="编组-17" transform="translate(23.802754, 15.099544)">
                        <g id="编组" transform="translate(0.000000, 9.507120)">
                            <g id="矩形备份-4" transform="translate(8.703210, 13.981059)" fill="#77CEFF" fill-opacity="0.481588724">
                                <g id="path-5-link">
                                    <polygon id="path-5" points="-5.16676598e-14 0 75.9805562 0 75.9805562 49.4104027 -5.16676598e-14 49.4104027"></polygon>
                                </g>
                            </g>
                            <polygon id="矩形" fill="url(#linearGradient-1)" fill-rule="nonzero" points="-8.38599519e-14 0.402858491 74.6018071 0.402858491 74.6018071 55.45328 -8.38599519e-14 55.45328"></polygon>
                            <g id="箭头1" transform="translate(37.197246, 30.393335) scale(1, -1) rotate(90.000000) translate(-37.197246, -30.393335) translate(12.197246, 5.393335)" fill-rule="nonzero">
                                <rect id="矩形" fill="#000000" opacity="0" x="0" y="0" width="50" height="50"></rect>
                                <path d="M31.653464,13.6410514 L31.653464,36.1277054 L46.8431154,24.8842785 L31.653464,13.6410514 Z M21.0078317,18.7176594 L29.8359462,18.7176594 L29.8359462,31.1809093 L21.0078317,31.1809093 L21.0078317,18.7176594 L21.0078317,18.7176594 Z M11.9200432,18.7176594 L17.8920442,18.7176594 L17.8920442,31.1809093 L11.9200432,31.1809093 L11.9200432,18.7176594 L11.9200432,18.7176594 Z M3.09192866,18.7176594 L7.50598594,18.7176594 L7.50598594,31.1809093 L3.09192866,31.1809093 L3.09192866,18.7176594 Z" id="形状" fill="url(#linearGradient-2)"></path>
                            </g>
                        </g>
                        <polygon id="矩形" fill="#569CFF" fill-rule="nonzero" points="0 -3.97903932e-13 34.6730274 -3.97903932e-13 40.8246936 10.6256052 0 10.6256052"></polygon>
                    </g>
                </g>
            </g>
        </g>
    </g>
</svg>