<?xml version="1.0" encoding="UTF-8"?>
<svg width="160px" height="98px" viewBox="0 0 160 98" version="1.1" xmlns="http://www.w3.org/2000/svg" xmlns:xlink="http://www.w3.org/1999/xlink">
    <title>编组</title>
    <defs>
        <linearGradient x1="-12.703203%" y1="52.4239014%" x2="112.599531%" y2="46.6980617%" id="linearGradient-1">
            <stop stop-color="#FFFFFF" stop-opacity="0.533052885" offset="0%"></stop>
            <stop stop-color="#FFBF86" offset="100%"></stop>
        </linearGradient>
        <linearGradient x1="50%" y1="0%" x2="50%" y2="100%" id="linearGradient-2">
            <stop stop-color="#589DFF" offset="0%"></stop>
            <stop stop-color="#147CFF" offset="100%"></stop>
        </linearGradient>
        <linearGradient x1="118.075716%" y1="28.0413483%" x2="-25.8864988%" y2="50%" id="linearGradient-3">
            <stop stop-color="#FFA212" offset="0%"></stop>
            <stop stop-color="#FFCC8F" offset="100%"></stop>
        </linearGradient>
    </defs>
    <g id="页面-1" stroke="none" stroke-width="1" fill="none" fill-rule="evenodd">
        <g id="我的工程-我创建的备份-3" transform="translate(-1145.000000, -331.000000)">
            <g id="Feedback/Modal/Light/Basic备份" transform="translate(985.000000, 254.000000)">
                <g id="编组" transform="translate(160.000000, 77.000000)">
                    <g id="编组-2" fill-opacity="0.108664773" fill-rule="nonzero" opacity="0.727050781">
                        <g id="编组-16">
                            <path d="M27.9553066,0 L107.044693,0 C109.781434,-1.09741585e-14 112,2.21856632 112,4.95530656 C112,7.6920468 109.781434,9.91061312 107.044693,9.91061312 L27.9553066,9.91061312 C25.2185663,9.91061312 23,7.6920468 23,4.95530656 C23,2.21856632 25.2185663,5.02731027e-16 27.9553066,0 Z" id="矩形" fill="#016AD9"></path>
                            <path d="M13.7488355,20.2341685 L123.751165,20.2341685 C126.373874,20.2341685 128.5,22.3602945 128.5,24.9830039 C128.5,27.6057133 126.373874,29.7318394 123.751165,29.7318394 L13.7488355,29.7318394 C11.1261261,29.7318394 9,27.6057133 9,24.9830039 C9,22.3602945 11.1261261,20.2341685 13.7488355,20.2341685 Z" id="矩形备份" fill="#016AD9"></path>
                            <rect id="矩形备份-2" fill="#01CCD9" x="10.7234043" y="62.7672164" width="120.881459" height="9.49767091" rx="4.74883545"></rect>
                            <path d="M4.74883545,40.8812791 L143.251165,40.8812791 C145.873874,40.8812791 148,43.0074052 148,45.6301146 C148,48.252824 145.873874,50.37895 143.251165,50.37895 L4.74883545,50.37895 C2.12612605,50.37895 3.21189267e-16,48.252824 0,45.6301146 C-3.21189267e-16,43.0074052 2.12612605,40.8812791 4.74883545,40.8812791 Z" id="矩形备份-3" fill="#016AD9"></path>
                            <rect id="矩形备份-5" fill="#016AD9" x="21.5238095" y="83.0013849" width="97.6190476" height="9.91061312" rx="4.95530656"></rect>
                        </g>
                    </g>
                    <g id="path-3-link" transform="translate(43.030733, 59.176759)" fill="url(#linearGradient-1)">
                        <polygon id="path-3" points="69.8476517 6.46551533 115.028707 12.4744127 65.7078893 37.9705401 65.7078893 26.8246206 0 29.9007773 9.66292489 0 65.7078893 12.4744127"></polygon>
                    </g>
                    <g id="矩形备份-4" transform="translate(21.201283, 13.769776)" fill="#77A2FF" fill-opacity="0.481588724">
                        <g id="path-5-link">
                            <path d="M8,0 L68,0 C72.418278,-1.69980292e-15 76,3.581722 76,8 L76,41 C76,45.418278 72.418278,49 68,49 L8,49 C3.581722,49 5.41083001e-16,45.418278 0,41 L0,8 C-5.41083001e-16,3.581722 3.581722,-3.6292676e-15 8,0 Z" id="path-5"></path>
                        </g>
                    </g>
                    <path d="M39,23 L107,23 C111.418278,23 115,26.581722 115,31 L115,71.6627219 C115,76.0809999 111.418278,79.6627219 107,79.6627219 L39,79.6627219 C34.581722,79.6627219 31,76.0809999 31,71.6627219 L31,31 C31,26.581722 34.581722,23 39,23 Z" id="矩形" fill="url(#linearGradient-2)" fill-rule="nonzero"></path>
                    <path d="M49,27 L98,27 C103.522847,27 108,31.4771525 108,37 C108,42.5228475 103.522847,47 98,47 L49,47 C43.4771525,47 39,42.5228475 39,37 C39,31.4771525 43.4771525,27 49,27 Z" id="矩形" fill="#E2F3FF"></path>
                    <text id="python" font-family="SourceHanSansCN-Bold, Source Han Sans CN" font-size="14" font-weight="bold" fill="#4995FF">
                        <tspan x="50" y="41">python</tspan>
                    </text>
                    <g id="编组-17" transform="translate(84.583333, 48.820020)" fill-rule="nonzero">
                        <circle id="椭圆形" fill="url(#linearGradient-3)" cx="17.2946217" cy="17.1491408" r="16.0416667"></circle>
                        <g id="问号" transform="translate(6.875000, 7.679980)">
                            <rect id="矩形" fill="#000000" opacity="0" x="0" y="0" width="20.4166667" height="20.4166667"></rect>
                            <path d="M9.97669189,0.000119628906 C6.43475911,0.393280029 4.4669633,1.92855754 4.07330444,4.60443685 C3.99456868,5.47049032 4.42734619,5.94288493 5.37213542,6.02136149 C5.84401164,6.10033651 6.23767049,5.7460555 6.55261353,4.95873779 C7.0249882,3.30586507 8.16485229,2.47942871 9.97669189,2.47942871 C12.1794389,2.63664103 13.3601563,3.73864258 13.5191231,5.78517415 C13.5191231,7.67449341 12.2368408,7.98239827 11.5403015,8.55207113 C10.6576994,9.27419108 10.0804899,10.0065991 9.37392171,11.2480282 C8.78018351,12.2910726 8.67788086,14.5224109 8.67788086,14.5224109 C8.67788086,15.4669409 9.10964152,15.9393355 9.97671183,15.9393355 C10.7625342,15.9393355 11.196807,15.4669409 11.2757821,14.5224109 C11.2757821,14.5224109 11.3798393,12.0182987 12.3908232,10.9110335 C13.5367086,9.65608643 16.2737581,8.77623576 16.3524939,5.54922607 C16.0375509,2.16450562 13.9122835,0.314803467 9.97669189,0.000119628906 Z M9.97669189,17.1301017 C9.06902751,17.1301017 8.33360881,17.8660189 8.33360881,18.7732048 C8.33360881,19.6808492 9.06902751,20.416547 9.97669189,20.416547 C10.8843563,20.416547 11.6200342,19.6808691 11.6200342,18.7732048 C11.6200342,17.8660189 10.8843563,17.1301017 9.97669189,17.1301017 L9.97669189,17.1301017 Z" id="形状" fill="#FFFFFF"></path>
                        </g>
                    </g>
                    <path d="M59.8809524,70 C60.8934744,70 61.7142857,70.7816087 61.7142857,71.745772 L61.7142857,72.1822149 C61.7142857,73.1463782 60.8934744,73.9279869 59.8809524,73.9279869 L41.547619,73.9279869 C40.535097,73.9279869 39.7142857,73.1463782 39.7142857,72.1822149 L39.7142857,71.745772 C39.7142857,70.7816087 40.535097,70 41.547619,70 L59.8809524,70 Z M68.9171843,61 C69.909696,61 70.7142857,61.7816087 70.7142857,62.745772 L70.7142857,63.1822149 C70.7142857,64.1463782 69.909696,64.9279869 68.9171843,64.9279869 L41.5113872,64.9279869 C40.5188754,64.9279869 39.7142857,64.1463782 39.7142857,63.1822149 L39.7142857,62.745772 C39.7142857,61.7816087 40.5188754,61 41.5113872,61 L68.9171843,61 Z M75.9047619,51.8461538 C76.9041343,51.8461538 77.7142857,52.6277626 77.7142857,53.5919258 L77.7142857,54.0283688 C77.7142857,54.992532 76.9041343,55.7741408 75.9047619,55.7741408 L41.5238095,55.7741408 C40.5244371,55.7741408 39.7142857,54.992532 39.7142857,54.0283688 L39.7142857,53.5919258 C39.7142857,52.6277626 40.5244371,51.8461538 41.5238095,51.8461538 L75.9047619,51.8461538 Z" id="形状结合" fill="#B2DFFF" fill-rule="nonzero"></path>
                </g>
            </g>
        </g>
    </g>
</svg>